<svg xmlns="http://www.w3.org/2000/svg" width="200" height="124.177" viewBox="0 0 200 124.177"><path d="M9.25,10.189c3.13-.124,10.765-.375,14.647-1.252-.126,1.628-.377,6.635-.377,16.149v4.256c3.5-2.88,6.385-4.382,9.89-4.382a10.309,10.309,0,0,1,9.013,4.633,19.641,19.641,0,0,1,2.5,10.14c0,11.641-5.508,18.276-16.65,18.276a21,21,0,0,1-8.762-2.129c-1.5.5-3.5,1.5-5.508,2.129l-.627-.377c.126-3.381.126-9.764.126-18.4V23.207c0-4.006-.126-6.76-.25-9.137-.126-1.628-.5-1.879-4.256-1.879ZM28.277,55.629c4.256,0,6.259-5.133,6.259-14.647a20.675,20.675,0,0,0-1.752-9.263,4.514,4.514,0,0,0-4.006-2.5,5.765,5.765,0,0,0-4.633,2.754c-.625.877-.875,1.628-.875,11.516,0,8.138.377,8.388.877,9.389A4.506,4.506,0,0,0,28.277,55.629Zm38.555,1.628c-2.63,0-5.257-.252-9.389-.252-4.38,0-6.509.252-8.636.252V55.129c3.5-.126,4.006-.751,4.132-2.129.124-1.5.25-3.88.25-7.761V37.227c0-3.255,0-5.882-.126-7.01s-.627-1.5-3.882-1.376V26.712c4.382-.375,9.64-.5,13.9-1.376-.126,1.628-.25,4.633-.25,11.516v8.638c0,4.006.126,5.758.25,7.511s.627,2,3.755,2.377ZM57.443,10.816c3.257,0,5.133,1.879,5.133,5.257,0,2.88-2.129,4.883-5.384,4.883a4.666,4.666,0,0,1-4.881-4.883,4.962,4.962,0,0,1,5.133-5.257Zm12.644-.627A92.3,92.3,0,0,0,83.732,8.937q-.254,7.758-.252,15.522V40.107c2.379-.627,7.511-6.886,9.514-10.515.377-.751.377-1.128-.625-1.128l-2.754-.25V26.087c4.633.126,9.389-.126,14.146-.377V27.84c-3.5.377-4.883.627-6.261,1.752a58.572,58.572,0,0,0-6.009,6.259c1.5,3.13,7.763,14.647,10.14,17.775a3.49,3.49,0,0,0,3.13,1.5l1.75.126-.124,2.127a92.794,92.794,0,0,0-13.9.751c-1.5-3.5-6.009-12.017-7.385-14.647-.751-1.376-1.128-1.877-1.628-1.752,0,5.133-.124,7.637.126,11.266.126,1.628.5,2.129,3.882,2.253v2.129c-2.379,0-4.883-.25-9.013-.25-4.883,0-7.01.25-8.889.25V55.253c3.255-.124,3.755-.749,3.882-2,.124-1.5.248-4.757.248-11.266V25.837c0-5.133,0-9.013-.124-12.267q0-1.127-1.5-1.128H69.961ZM39.92,88.176c-2.129,6.76-6.259,10.014-13.145,10.014-5.884,0-9.64-1.628-12.267-5.133-2-2.628-3-6.509-3-10.89,0-9.64,5.884-17.024,16.65-17.024,6.509,0,11.266,3,11.266,7.887,0,3.379-2.754,4.755-5.007,4.755a5.68,5.68,0,0,1-2.5-.625,1.956,1.956,0,0,1-.877-2.253,18.857,18.857,0,0,0,.377-2.63c0-3.128-1.128-4.631-3.5-4.631-3.882,0-5.884,5.634-5.884,13.4,0,3.128.377,6.633,1.5,8.76,1.252,2.88,3.255,4.506,6.259,4.506,3.755,0,6.135-2.127,7.887-7.01Zm7.134-9.137a69.938,69.938,0,0,0-.377-8.764,1.319,1.319,0,0,0-1.5-1.25H42.922V66.9c3.755-.126,8.889-.377,12.518-1.5l.377.25c.25,1.5.5,5.133.627,7.387h.248c1.63-4.382,3.882-7.887,8.514-7.887a4.717,4.717,0,0,1,4.633,5.007c0,4.132-3.13,5.384-4.382,5.384a2.424,2.424,0,0,1-2.5-1.254c-.625-1.376-1-2.127-2.251-2.127-1.378,0-2.129,1.252-3,3.255a13.29,13.29,0,0,0-.627,4.506c0,7.136,0,11.142.126,12.894s.749,2.251,5.756,2.377l-.124,2.129c-3.5-.126-6.635-.252-10.265-.252-3.755,0-6.509.126-9.64.252l.375-2.129c3-.126,3.755-.5,3.755-1.752.126-1.752.25-5.133.25-9.013V79.037h-.25Zm42.436-5.758c0-3.757-1.254-5.76-3.757-5.76-2.878,0-4.254,1.628-4.254,4.633a13.973,13.973,0,0,0,.248,2.379,1.783,1.783,0,0,1-.749,1.877,6.842,6.842,0,0,1-3.5,1.128c-2.379,0-4.382-1.13-4.382-3.882,0-4.006,5.884-8.512,14.146-8.512,6.758,0,9.762,2.754,10.889,4.506a6.29,6.29,0,0,1,1,3.381v18.4c0,2.129.627,2.63,1.378,2.63,1,0,2.127-1.628,2.628-4.382l2.129,1c-1.128,5.384-4.382,7.637-8.889,7.637-3.882,0-6.009-1.628-6.635-4.883-3,3-6.133,4.883-9.387,4.883-5.257,0-8.762-3.5-8.762-9.265,0-3.5,1.5-5.508,4.132-6.633,4.254-1.879,10.639-3.755,13.768-6.009v-3.13ZM81.6,87.174c0,2.754,1.128,5.758,3.882,5.758,2,0,2.878-1.252,3.5-2.5a9.3,9.3,0,0,0,.375-3V78.913c-1.378.877-3.5,1.879-5.133,2.88C82.729,82.794,81.6,84.044,81.6,87.174Zm24.785-20.9,4.006.124v-2c.126-5.257,1.378-9.139,4.132-11.893a12.371,12.371,0,0,1,9.137-3.755c5.133,0,7.887,2.5,7.887,5.758,0,2.379-2,4.006-4.759,4.006a2.365,2.365,0,0,1-2.5-2.5c0-2.628-.375-4.755-2.251-4.755-1.254,0-2,1.126-2.255,3.255-.248,2,.126,5.758.377,11.641h6.135l-.377,2.5-5.758.377c-.126,2.377-.126,6.509-.126,11.39,0,4.633,0,8.762.126,12.017.126,1.628.377,2.253,1.753,2.379a33.376,33.376,0,0,0,3.381.248l-.254,2.129c-2.377,0-6.133-.25-9.387-.25-3.381,0-7.387.25-9.64.25l.126-2.129c3.255-.124,3.755-.5,3.882-1.877.248-2.129.248-5.384.248-9.764V68.9l-4.254-.25.375-2.379Z" transform="translate(9.026 8.962)" fill="#e9bc45"/><path d="M89.907,43.142l-.252,2.377-7.635.5c0,2.63-.126,6.509-.126,11.767,0,5.508,0,9.263.252,11.516.124,1.628.749,2.379,2,2.379,2.628,0,4.254-2.88,4.881-5.508h1l.877,2.878c-1.5,3.631-5.259,6.135-10.767,6.135-3,0-5.632-1-6.884-2.5a6.9,6.9,0,0,1-1.252-4.506c0-5.133.25-16.65.25-22.158l-4.006-.377.25-2.377h3.755c.126-2.379.126-5.133.126-7.637A34.6,34.6,0,0,0,81.769,32l.751.126q-.328,5.564-.377,11.14h7.763V43.14Z" transform="translate(68.225 32.091)" fill="#e9bc45"/><path d="M190,10.014V114.163H10V10.014ZM200,0H0V124.177H200Z" fill="#e9bc45"/></svg>